<?xml version="1.0" standalone="no"?>
<!DOCTYPE svg PUBLIC "-//W3C//DTD SVG 20010904//EN"
 "http://www.w3.org/TR/2001/REC-SVG-20010904/DTD/svg10.dtd">
<svg version="1.0" xmlns="http://www.w3.org/2000/svg"
 width="868.000000pt" height="322.000000pt" viewBox="0 0 868.000000 322.000000"
 preserveAspectRatio="xMidYMid meet">
<metadata>
Created by potrace 1.15, written by Peter Selinger 2001-2017
</metadata>
<g transform="translate(0.000000,322.000000) scale(0.100000,-0.100000)"
fill="#000000" stroke="none">
<path d="M1885 3205 c-22 -8 -50 -26 -62 -39 -25 -29 -38 -99 -28 -145 21 -95
139 -140 240 -91 59 28 79 70 73 148 -5 75 -36 114 -103 131 -55 14 -71 13
-120 -4z"/>
<path d="M6945 3034 c-127 -91 -236 -172 -244 -179 -12 -12 5 -20 108 -51 83
-26 120 -42 117 -50 -16 -41 -386 -1292 -386 -1304 0 -18 -141 -413 -150 -420
-7 -6 -310 -1000 -310 -1018 0 -9 33 -12 120 -12 l119 0 35 113 c20 61 206
667 416 1346 209 679 381 1236 383 1237 2 2 52 -12 112 -31 60 -19 111 -32
113 -30 4 4 -182 526 -197 552 -4 8 -86 -45 -236 -153z"/>
<path d="M0 2165 l0 -1025 125 0 125 0 0 394 c0 418 5 479 50 598 29 79 97
168 156 206 178 113 431 55 516 -119 44 -91 48 -142 48 -626 l0 -453 120 0
121 0 -3 518 -3 517 -27 80 c-63 185 -185 303 -358 346 -122 30 -308 11 -414
-43 -51 -26 -131 -101 -172 -163 l-34 -50 0 423 0 422 -125 0 -125 0 0 -1025z"/>
<path d="M3650 2789 l0 -401 -39 49 c-52 66 -95 101 -166 134 -119 56 -288 60
-430 10 -168 -59 -307 -203 -374 -387 -43 -117 -55 -211 -48 -377 9 -240 68
-388 212 -532 127 -128 245 -178 425 -179 168 0 309 70 394 196 19 27 36 46
39 41 2 -4 7 -37 11 -73 4 -36 9 -80 13 -97 l5 -33 99 0 99 0 0 1025 0 1025
-120 0 -120 0 0 -401z m-266 -415 c63 -22 142 -81 182 -135 64 -87 77 -141 82
-339 2 -103 0 -199 -7 -233 -33 -181 -162 -309 -339 -337 -193 -32 -368 103
-438 335 -23 75 -26 292 -5 375 31 128 115 252 205 305 92 54 216 65 320 29z"/>
<path d="M4930 2614 c-14 -2 -52 -9 -85 -15 -172 -30 -337 -161 -419 -332 -70
-146 -81 -202 -80 -412 1 -165 3 -187 27 -268 33 -106 60 -162 121 -244 78
-106 195 -185 328 -220 83 -22 260 -22 351 0 191 47 328 169 384 344 35 111
42 104 -103 101 l-127 -3 -16 -52 c-25 -81 -70 -136 -137 -169 -55 -27 -68
-29 -174 -29 -110 0 -118 1 -182 33 -39 19 -81 49 -101 73 -75 86 -127 223
-127 332 l0 47 489 0 489 0 7 76 c9 102 -2 221 -32 324 -59 206 -183 341 -361
394 -55 16 -207 28 -252 20z m214 -227 c120 -55 196 -189 196 -344 l0 -53
-376 0 -376 0 6 38 c37 208 164 354 336 386 56 10 161 -3 214 -27z"/>
<path d="M7900 2610 c-289 -39 -488 -235 -546 -538 -18 -95 -18 -329 0 -424
39 -203 140 -358 293 -451 204 -124 522 -124 726 0 156 95 259 257 296 467 14
77 14 315 0 392 -55 314 -256 516 -551 554 -83 11 -138 11 -218 0z m253 -230
c127 -39 227 -167 262 -335 19 -89 19 -280 0 -367 -32 -152 -114 -265 -233
-321 -91 -42 -208 -49 -311 -18 -121 37 -215 145 -256 296 -25 93 -31 283 -12
384 17 89 59 188 103 247 89 116 281 165 447 114z"/>
<path d="M1830 1860 l0 -720 120 0 120 0 0 720 0 720 -120 0 -120 0 0 -720z"/>
<path d="M5839 2558 c23 -59 444 -1085 451 -1097 8 -15 15 2 85 204 l38 111
-153 402 -153 402 -138 0 -139 0 9 -22z"/>
</g>
</svg>
